{"title":"Buckeye_Blitz_720p_XVID_20101015-TTL","uid":5890303,"size":600887758,"categoryP":"video","categoryS":"hd___tv_shows","magnet":"?xt=urn:btih:404366441aeac25f2add1bdcaba561f3d418bed9&amp;dn=Buckeye_Blitz_720p_XVID_20101015-TTL&amp;tr=udp%3A%2F%2Ftracker.openbittorrent.com%3A80&amp;tr=udp%3A%2F%2Fopen.demonii.com%3A1337&amp;tr=udp%3A%2F%2Ftracker.coppersurfer.tk%3A6969&amp;tr=udp%3A%2F%2Fexodus.desync.com%3A6969","seeders":0,"leechers":0,"uploader":"thetorrentlord","files":6,"time":1287218430,"description":"OSU VS Wisconsin pre-game special and The Columbus Dispatch. Comments, complaints, suggestions, requests, always welcome. Please share and don't hit and run. GO BUCKS!!!  BEAT Wisconsin!!!!!!                                                                     ---------------------------------------------------------------------------------------------------------------------------------------------------------------------------------------------Buckeye_Blitz_720p_XVID_20101015-TTL.avi\nFormat                           : AVI\nFormat/Info                      : Audio Video Interleave\nFile size                        : 347 MiB\nDuration                         : 1h 26mn\nOverall bit rate                 : 558 Kbps\nMovie name                       : Buckeye_Blitz_20101015.mpg\nDirector                         : created.with.SUPER(C).v2010.bld.37\nWriting application              : SUPER(C)   \n\nVideo\nID                               : 0\nFormat                           : MPEG-4 Visual\nFormat profile                   : Simple@L3\nFormat settings, BVOP            : No\nFormat settings, QPel            : No\nFormat settings, GMC             : No warppoints\nFormat settings, Matrix          : Default (H.263)\nCodec ID                         : XVID\nCodec ID/Hint                    : XviD\nDuration                         : 43mn 25s\nBit rate                         : 1 008 Kbps\nWidth                            : 624 pixels\nHeight                           : 352 pixels\nDisplay aspect ratio             : 16:9\nFrame rate                       : 23.976 fps\nResolution                       : 8 bits\nColorimetry                      : 4:2:0\nScan type                        : Progressive\nBits/(Pixel*Frame)               : 0.191\nStream size                      : 313 MiB (90%)\nWriting library                  : XviD 1.1.2 (UTC 2006-11-01)\n\nAudio\nID                               : 1\nFormat                           : MPEG Audio\nFormat version                   : Version 2\nFormat profile                   : Layer 3\nMode                             : Joint stereo\nFormat_Settings_ModeExtension    : MS Stereo\nCodec ID                         : 55\nCodec ID/Hint                    : MP3\nDuration                         : 1h 26mn\nBit rate mode                    : Constant\nBit rate                         : 96.0 Kbps\nChannel(s)                       : 2 channels\nSampling rate                    : 22.05 KHz\nStream size                      : 29.8 MiB (9%)\nAlignment                        : Aligned on interleaves\nInterleave, duration             : 26 ms (0.63 video frame)\nInterleave, preload duration     : 26 ms\nWriting library                  : LAME3.98\n\n","torrent":{"xt":"urn:btih:404366441aeac25f2add1bdcaba561f3d418bed9","amp;dn":"Buckeye_Blitz_720p_XVID_20101015-TTL","amp;tr":["udp%3A%2F%2Ftracker.openbittorrent.com%3A80","udp%3A%2F%2Fopen.demonii.com%3A1337","udp%3A%2F%2Ftracker.coppersurfer.tk%3A6969","udp%3A%2F%2Fexodus.desync.com%3A6969"],"infoHash":"404366441aeac25f2add1bdcaba561f3d418bed9","infoHashBuffer":{"type":"Buffer","data":[64,67,102,68,26,234,194,95,42,221,27,220,171,165,97,243,212,24,190,217]},"announce":[],"urlList":[]}}